# xmcd CD database file
# Copyright (C) 1993-1998 Ti Kan
#
# Track frame offsets:
#	150
#	20522
#	39439
#	61650
#	80962
#	101407
#	133580
#	165955
#	192542
#	220352
#	235834
#	260317
#	273932
#	291595
#	318462
#
# Disc length: 4397 seconds
#
# Revision: 1
# Processed by: cddbd v1.4b41PL1 Copyright (c) Steve Scherf et al.
# Submitted via: CDValet v3.31 - Copyright (c) 1997 Greg Leichner
#
DISCID=d8112b0f
DTITLE=Various Artist - Steppin' Chicago Style (Volume 1)
DYEAR=1900
DGENRE=
TTITLE0=Unknown - Payback Is A Dog
TTITLE1=Unknown - Joneses
TTITLE2=Unknown - Key To The World
TTITLE3=Unknown - Mind Blowin' Decisions
TTITLE4=Unknown - Jam Tonight
TTITLE5=Unknown - The Fruit song
TTITLE6=Unknown - Magic Nights
TTITLE7=Unknown - Love Gonna Last
TTITLE8=Unknown - Jazzy Lady
TTITLE9=Unknown - Magic Mona
TTITLE10=Unknown - Thoughts And Wishes
TTITLE11=Unknown - So In Love With You
TTITLE12=Unknown - Quiet Storm
TTITLE13=Unknown - Do You Want Me?
TTITLE14=Unknown - This Love
EXTD=
EXTT0=
EXTT1=
EXTT2=
EXTT3=
EXTT4=
EXTT5=
EXTT6=
EXTT7=
EXTT8=
EXTT9=
EXTT10=
EXTT11=
EXTT12=
EXTT13=
EXTT14=
PLAYORDER=
